PathFileType	4	(X/Y/Z)	/Users/itak/Documents/Research/Walk-IL/dataset/trc/00471_00167.trc
DataRate	CameraRate	NumFrames	NumMarkers	Units	OrigDataRate	OrigDataStartFrame	OrigNumFrames
100.000000	100.000000	4	53	mm	100.000000	391	626
Frame#	Time	RPSI			LPSI			L3			STRN			T10			C7			CLAV			RBAK			LBAK			LSHO			LUPA			LAEL			LAOL			LWTS			LWPS			LFRA			LIFD			LHPS			LHTS			RSHO			RUPA			RAEL			RAOL			RWTS			RWPS			RFRA			RIFD			RHTS			RHPS			RBHD			LFHD			RFHD			LBHD			LHIP			RHIP			RASI			LASI			LKNE			LTHI			LANK			LTIP			LTOE			LMT1			LMT5			LHEE			RKNE			RTHI			RANK			RTIP			RTOE			RMT1			RMT5			RHEE			
		X1	Y1	Z1	X2	Y2	Z2	X3	Y3	Z3	X4	Y4	Z4	X5	Y5	Z5	X6	Y6	Z6	X7	Y7	Z7	X8	Y8	Z8	X9	Y9	Z9	X10	Y10	Z10	X11	Y11	Z11	X12	Y12	Z12	X13	Y13	Z13	X14	Y14	Z14	X15	Y15	Z15	X16	Y16	Z16	X17	Y17	Z17	X18	Y18	Z18	X19	Y19	Z19	X20	Y20	Z20	X21	Y21	Z21	X22	Y22	Z22	X23	Y23	Z23	X24	Y24	Z24	X25	Y25	Z25	X26	Y26	Z26	X27	Y27	Z27	X28	Y28	Z28	X29	Y29	Z29	X30	Y30	Z30	X31	Y31	Z31	X32	Y32	Z32	X33	Y33	Z33	X34	Y34	Z34	X35	Y35	Z35	X36	Y36	Z36	X37	Y37	Z37	X38	Y38	Z38	X39	Y39	Z39	X40	Y40	Z40	X41	Y41	Z41	X42	Y42	Z42	X43	Y43	Z43	X44	Y44	Z44	X45	Y45	Z45	X46	Y46	Z46	X47	Y47	Z47	X48	Y48	Z48	X49	Y49	Z49	X50	Y50	Z50	X51	Y51	Z51	X52	Y52	Z52	X53	Y53	Z53	

392	3.91	248.3506469726562	953.9837646484375	-253.2621459960938	226.2034301757812	958.3037109375	-111.1652603149414	209.1149597167969	1055.485473632812	-198.5451965332031	-89.41321563720703	1220.396728515625	-215.9136352539062	206.6463012695312	1180.076293945312	-192.3722839355469	109.7330932617188	1439.420776367188	-204.9211730957031	-65.4635009765625	1336.03515625	-207.9868774414062	190.5736083984375	1329.367431640625	-296.35302734375	141.2795257568359	1391.997436523438	-103.2665100097656	30.83565521240234	1402.604614257812	-36.04671096801758	36.27377319335938	1286.3876953125	62.17575454711914	15.59695243835449	1073.784545898438	100.0169525146484	99.32992553710938	1055.285034179688	42.69164276123047	-69.00479888916016	872.4570922851562	55.8891716003418	-25.54285049438477	859.4901733398438	115.0980682373047	-9.050889015197754	987.1279907226562	110.0469055175781	-73.30757904052734	713.5693359375	79.50936126708984	-32.63113403320312	783.9647827148438	120.1025848388672	-84.95378112792969	786.89697265625	70.00783538818359	56.48100662231445	1408.436645507812	-369.3621215820312	87.01620483398438	1353.1884765625	-444.555419921875	135.2953796386719	1070.0830078125	-499.4287414550781	183.5610656738281	1059.86474609375	-452.6851806640625	59.45382308959961	849.728271484375	-463.8248901367188	132.3285064697266	846.4978637695312	-514.081298828125	141.2703247070312	1012.151245117188	-509.3480834960938	90.58787536621094	695.6015625	-466.720947265625	66.60300445556641	750.4619140625	-470.4737854003906	134.248046875	758.7410278320312	-507.4841918945312	-9.936519622802734	1621.871337890625	-300.9410705566406	-166.9224090576172	1601.895874023438	-165.9187927246094	-146.2718048095703	1600.982543945312	-295.9557495117188	-22.52636528015137	1632.306884765625	-124.0482177734375	67.24383544921875	856.2250366210938	-14.74935150146484	161.351318359375	836.4959106445312	-404.090576171875	47.50421524047852	873.912109375	-359.2454223632812	-7.370559215545654	889.2920532226562	-112.9515838623047	-34.34767532348633	448.5167236328125	-71.25984191894531	-22.03665924072266	599.204833984375	-40.91807556152344	-12.49995422363281	32.6608772277832	-80.85042572021484	-50.3134765625	296.3049011230469	-65.29031372070312	-222.0073852539062	42.55513381958008	-200.6388092041016	-142.7542877197266	52.51627731323242	-211.0677337646484	-164.9671936035156	39.93093109130859	-100.4027557373047	46.4744987487793	41.7332878112793	-132.1996612548828	128.5203247070312	449.6066589355469	-402.9825134277344	116.9806060791016	702.8333129882812	-418.5784912109375	488.2916564941406	194.6357421875	-388.9709777832031	223.1200714111328	338.4548645019531	-407.9483032226562	397.9424438476562	32.23326110839844	-283.7089233398438	426.1419372558594	93.54463958740234	-270.9048767089844	434.2469482421875	73.84228515625	-373.3628845214844	517.3296508789062	261.4210510253906	-357.6243896484375	
393	3.92	242.2666625976562	954.7467651367188	-250.0191040039062	218.6849517822266	959.81640625	-108.1651153564453	202.2350769042969	1057.181884765625	-195.1965026855469	-95.79566192626953	1222.260864257812	-214.4645843505859	199.6489410400391	1181.793579101562	-189.0376434326172	103.0650482177734	1441.377319335938	-201.6779937744141	-72.20925903320312	1337.8291015625	-205.7651519775391	184.4120025634766	1331.455932617188	-293.0072631835938	134.0987854003906	1393.756103515625	-100.0397033691406	23.43955230712891	1404.14404296875	-33.37395858764648	28.65983390808105	1288.016235351562	64.91584777832031	7.595906257629395	1075.2724609375	102.6738586425781	91.60035705566406	1056.626098632812	45.87992858886719	-79.26346588134766	875.5091552734375	55.89740371704102	-36.56045150756836	861.2381591796875	115.2829818725586	-18.21567344665527	988.8193969726562	111.7598876953125	-85.63995361328125	716.3604736328125	76.97089385986328	-44.56661224365234	785.6118774414062	119.1014633178711	-96.40052795410156	789.9517822265625	68.67822265625	50.56106567382812	1410.728393554688	-366.36572265625	81.20995330810547	1355.8193359375	-441.6580200195312	127.6042175292969	1072.857788085938	-498.5504760742188	176.7542419433594	1062.202392578125	-452.8898620605469	49.88236618041992	852.959716796875	-461.0325622558594	121.0215148925781	849.0626220703125	-513.6985473632812	132.5827484130859	1014.910034179688	-508.7457885742188	81.30552673339844	698.6166381835938	-460.9953308105469	57.19344329833984	753.4384155273438	-465.7013244628906	123.2905731201172	761.0870971679688	-505.1865234375	-17.2933521270752	1623.935791015625	-297.6660461425781	-174.4279479980469	1602.852661132812	-162.9827423095703	-153.5380554199219	1602.296264648438	-292.9542846679688	-30.30530166625977	1633.897827148438	-120.7515716552734	59.75938415527344	857.1708374023438	-13.49147701263428	155.5130920410156	838.4093017578125	-402.5570068359375	41.91484832763672	876.44287109375	-358.5369262695312	-14.56606674194336	889.742431640625	-112.46142578125	-35.76815032958984	448.28173828125	-69.83939361572266	-25.61881446838379	599.1860961914062	-39.79791641235352	-12.53788661956787	32.431640625	-80.53364562988281	-50.99157333374023	296.1773071289062	-64.18724060058594	-222.1128387451172	42.78252792358398	-200.2425842285156	-142.7254333496094	53.1100959777832	-210.7497253417969	-165.2181091308594	39.59717178344727	-100.1414947509766	46.35478591918945	41.84419250488281	-131.8279876708984	112.9189224243164	452.590087890625	-404.4160461425781	108.5773849487305	705.949462890625	-418.7936096191406	475.9563598632812	204.8968811035156	-382.8282470703125	208.7906036376953	342.8167724609375	-407.3388671875	383.9487915039062	35.08620834350586	-286.8773193359375	410.2510375976562	98.44741058349609	-270.1082763671875	423.1171875	82.55634307861328	-372.6371459960938	503.3377685546875	270.6714477539062	-348.6831665039062	
394	3.93	236.1717834472656	955.4002075195312	-247.1473999023438	211.3388061523438	961.19140625	-105.5190048217773	195.5342864990234	1058.644409179688	-192.0558929443359	-102.0337448120117	1224.034423828125	-213.1098480224609	192.7261047363281	1183.2724609375	-185.8210754394531	96.60997009277344	1443.146728515625	-198.4781951904297	-78.75312805175781	1339.5244140625	-203.6521453857422	178.5447235107422	1333.295043945312	-289.6029968261719	127.0960693359375	1395.322509765625	-96.84693145751953	16.2107105255127	1405.477294921875	-30.73369598388672	21.24431037902832	1289.42578125	67.63343811035156	-0.2370087057352066	1076.618408203125	105.4112777709961	84.11942291259766	1057.764770507812	49.26857757568359	-89.35185241699219	878.6097412109375	55.83831405639648	-47.60575103759766	862.9539794921875	115.4617004394531	-27.26018142700195	990.40869140625	113.5134582519531	-98.37953948974609	719.354248046875	74.25965118408203	-56.79547882080078	787.2813110351562	118.0839309692383	-107.9487075805664	793.2120971679688	67.21837615966797	45.02653121948242	1412.779907226562	-363.4700622558594	75.90956878662109	1358.174926757812	-438.7807006835938	120.3559188842773	1075.461181640625	-497.8458862304688	170.3012542724609	1064.200927734375	-453.2260131835938	40.08260726928711	856.3504638671875	-458.4655456542969	109.4742202758789	851.58251953125	-513.6368408203125	124.1645431518555	1017.485290527344	-508.3391418457031	71.27132415771484	701.6146240234375	-455.7582397460938	47.16604232788086	756.61572265625	-461.4672546386719	111.6690216064453	763.356201171875	-503.4598083496094	-24.35521507263184	1625.879272460938	-294.5103759765625	-181.6408843994141	1603.742431640625	-160.1966705322266	-160.5055999755859	1603.535522460938	-290.0820007324219	-37.79898834228516	1635.38623046875	-117.5787963867188	52.39865875244141	858.0939331054688	-12.32900810241699	149.4226226806641	840.2332763671875	-401.2490539550781	36.17221069335938	878.8291625976562	-357.7564392089844	-21.69669914245605	890.3060913085938	-111.8829879760742	-37.12233734130859	448.09814453125	-68.44013977050781	-29.09710884094238	599.25537109375	-38.7767448425293	-12.57648181915283	32.22836685180664	-80.23978424072266	-51.63717269897461	296.0770874023438	-63.10241317749023	-222.2570190429688	43.02765274047852	-199.8279571533203	-142.7287292480469	53.70988845825195	-210.4230804443359	-165.4752807617188	39.27099609375	-99.88352966308594	46.17554092407227	41.96102523803711	-131.5076904296875	97.84368896484375	455.9292297363281	-406.091796875	100.0466384887695	709.000732421875	-419.0702209472656	463.2153015136719	214.1882934570312	-376.5318603515625	194.8614044189453	347.524169921875	-406.9407958984375	368.7512512207031	39.06209564208984	-289.6846008300781	393.6488952636719	103.4216842651367	-269.1882629394531	410.9803466796875	91.11664581298828	-371.6591491699219	489.1918334960938	279.0174560546875	-339.8429260253906	
395	3.94	230.0456085205078	956.027587890625	-244.7017059326172	204.1813201904297	962.4293212890625	-103.2718963623047	189.010009765625	1059.89013671875	-189.1779937744141	-108.1391067504883	1225.720825195312	-211.8054351806641	185.9284515380859	1184.54248046875	-182.7542572021484	90.35860443115234	1444.731079101562	-195.3297882080078	-85.08970642089844	1341.1328125	-201.6333618164062	172.9369812011719	1334.919921875	-286.1772155761719	120.2761993408203	1396.6865234375	-93.70559692382812	9.156859397888184	1406.618896484375	-28.12801170349121	14.00574207305908	1290.632446289062	70.31962585449219	-7.956716060638428	1077.839233398438	108.1745681762695	76.83482360839844	1058.7138671875	52.8101806640625	-99.24418640136719	881.734619140625	55.70024871826172	-58.6578483581543	864.6685791015625	115.6385192871094	-36.21287155151367	991.91357421875	115.2716827392578	-111.447380065918	722.5540161132812	71.49748992919922	-69.27049255371094	789.0272216796875	117.1026077270508	-119.5324554443359	796.665283203125	65.66764831542969	39.83180999755859	1414.626220703125	-360.6629028320312	71.05631256103516	1360.295043945312	-435.9244995117188	113.6153564453125	1077.940795898438	-497.2430114746094	164.1965637207031	1065.907104492188	-453.5388793945312	30.1347827911377	859.9547119140625	-456.2316589355469	97.92100524902344	854.129150390625	-513.8189697265625	116.1319427490234	1019.924865722656	-508.0429992675781	60.53050994873047	704.602294921875	-451.3361206054688	36.53865051269531	760.050537109375	-458.0333251953125	99.52339172363281	765.6463012695312	-502.3681335449219	-31.11922454833984	1627.689819335938	-291.4766235351562	-188.560546875	1604.569946289062	-157.5732269287109	-167.1658020019531	1604.701293945312	-287.3551635742188	-45.00484466552734	1636.76904296875	-114.5363998413086	45.22280120849609	858.9728393554688	-11.24540328979492	143.0566864013672	842.00927734375	-400.1482238769531	30.23198127746582	881.0993041992188	-356.8549194335938	-28.76791191101074	890.98681640625	-111.1507339477539	-38.46576309204102	447.95166015625	-67.08307647705078	-32.5013313293457	599.3706665039062	-37.84202575683594	-12.61621761322021	32.04667663574219	-79.97532653808594	-52.27581405639648	295.9982604980469	-62.04594039916992	-222.4290313720703	43.28354263305664	-199.4145965576172	-142.7662506103516	54.31552505493164	-210.0838623046875	-165.7309417724609	38.95822143554688	-99.62997436523438	45.96725463867188	42.08697128295898	-131.2383728027344	83.28470611572266	459.5709838867188	-408.0078430175781	91.43500518798828	711.9961547851562	-419.3944396972656	450.0257568359375	222.3808898925781	-370.2944030761719	181.255615234375	352.4358520507812	-406.7755126953125	352.6552429199219	43.86540222167969	-291.7972717285156	376.60986328125	108.4094619750977	-268.0193481445312	397.9702453613281	99.17213439941406	-370.2911987304688	474.8363647460938	286.4223937988281	-331.4301452636719	
